<mxfile host="app.diagrams.net" modified="2022-10-24T09:52:37.814Z" agent="5.0 (Windows NT 10.0; Win64; x64) AppleWebKit/537.36 (KHTML, like Gecko) Chrome/106.0.0.0 Safari/537.36 Edg/106.0.1370.52" etag="iJ2ey-NHovlu3NDwW92J" version="20.5.1" type="github">
  <diagram name="Page-1" id="52a04d89-c75d-2922-d76d-85b35f80e030">
    <mxGraphModel dx="1422" dy="762" grid="1" gridSize="10" guides="1" tooltips="1" connect="1" arrows="1" fold="1" page="1" pageScale="1" pageWidth="1100" pageHeight="850" background="none" math="0" shadow="0">
      <root>
        <mxCell id="0" />
        <mxCell id="1" parent="0" />
        <mxCell id="dq3wkl6CSuaMOuUt7eZr-1" value="原短信发送流程" style="rounded=1;whiteSpace=wrap;html=1;" vertex="1" parent="1">
          <mxGeometry x="230" y="50" width="610" height="60" as="geometry" />
        </mxCell>
        <mxCell id="dq3wkl6CSuaMOuUt7eZr-4" style="edgeStyle=orthogonalEdgeStyle;rounded=0;orthogonalLoop=1;jettySize=auto;html=1;exitX=1;exitY=0.5;exitDx=0;exitDy=0;" edge="1" parent="1" source="dq3wkl6CSuaMOuUt7eZr-2" target="dq3wkl6CSuaMOuUt7eZr-3">
          <mxGeometry relative="1" as="geometry" />
        </mxCell>
        <mxCell id="dq3wkl6CSuaMOuUt7eZr-8" style="edgeStyle=orthogonalEdgeStyle;rounded=0;orthogonalLoop=1;jettySize=auto;html=1;exitX=0.5;exitY=0;exitDx=0;exitDy=0;entryX=0.5;entryY=0;entryDx=0;entryDy=0;" edge="1" parent="1" source="dq3wkl6CSuaMOuUt7eZr-2" target="dq3wkl6CSuaMOuUt7eZr-3">
          <mxGeometry relative="1" as="geometry" />
        </mxCell>
        <mxCell id="dq3wkl6CSuaMOuUt7eZr-2" value="设备" style="rounded=1;whiteSpace=wrap;html=1;" vertex="1" parent="1">
          <mxGeometry x="240" y="170" width="120" height="60" as="geometry" />
        </mxCell>
        <mxCell id="dq3wkl6CSuaMOuUt7eZr-5" style="edgeStyle=orthogonalEdgeStyle;rounded=0;orthogonalLoop=1;jettySize=auto;html=1;exitX=0.5;exitY=1;exitDx=0;exitDy=0;entryX=0.5;entryY=1;entryDx=0;entryDy=0;" edge="1" parent="1" source="dq3wkl6CSuaMOuUt7eZr-3" target="dq3wkl6CSuaMOuUt7eZr-2">
          <mxGeometry relative="1" as="geometry" />
        </mxCell>
        <mxCell id="dq3wkl6CSuaMOuUt7eZr-11" style="edgeStyle=orthogonalEdgeStyle;rounded=0;orthogonalLoop=1;jettySize=auto;html=1;exitX=1;exitY=0.5;exitDx=0;exitDy=0;" edge="1" parent="1" source="dq3wkl6CSuaMOuUt7eZr-3" target="dq3wkl6CSuaMOuUt7eZr-10">
          <mxGeometry relative="1" as="geometry" />
        </mxCell>
        <mxCell id="dq3wkl6CSuaMOuUt7eZr-13" style="edgeStyle=orthogonalEdgeStyle;rounded=0;orthogonalLoop=1;jettySize=auto;html=1;exitX=1;exitY=0.5;exitDx=0;exitDy=0;" edge="1" parent="1" source="dq3wkl6CSuaMOuUt7eZr-3" target="dq3wkl6CSuaMOuUt7eZr-12">
          <mxGeometry relative="1" as="geometry" />
        </mxCell>
        <mxCell id="dq3wkl6CSuaMOuUt7eZr-3" value="API" style="rounded=1;whiteSpace=wrap;html=1;" vertex="1" parent="1">
          <mxGeometry x="500" y="170" width="120" height="60" as="geometry" />
        </mxCell>
        <mxCell id="dq3wkl6CSuaMOuUt7eZr-6" value="1.请求手机号" style="text;html=1;align=center;verticalAlign=middle;resizable=0;points=[];autosize=1;strokeColor=none;fillColor=none;" vertex="1" parent="1">
          <mxGeometry x="385" y="175" width="90" height="30" as="geometry" />
        </mxCell>
        <mxCell id="dq3wkl6CSuaMOuUt7eZr-7" value="2.返回手机号" style="text;html=1;align=center;verticalAlign=middle;resizable=0;points=[];autosize=1;strokeColor=none;fillColor=none;" vertex="1" parent="1">
          <mxGeometry x="385" y="215" width="90" height="30" as="geometry" />
        </mxCell>
        <mxCell id="dq3wkl6CSuaMOuUt7eZr-9" value="3.上报手机号" style="text;html=1;align=center;verticalAlign=middle;resizable=0;points=[];autosize=1;strokeColor=none;fillColor=none;" vertex="1" parent="1">
          <mxGeometry x="385" y="125" width="90" height="30" as="geometry" />
        </mxCell>
        <mxCell id="dq3wkl6CSuaMOuUt7eZr-16" style="edgeStyle=orthogonalEdgeStyle;rounded=0;orthogonalLoop=1;jettySize=auto;html=1;exitX=0.5;exitY=1;exitDx=0;exitDy=0;entryX=0.5;entryY=0;entryDx=0;entryDy=0;" edge="1" parent="1" source="dq3wkl6CSuaMOuUt7eZr-10" target="dq3wkl6CSuaMOuUt7eZr-17">
          <mxGeometry relative="1" as="geometry">
            <mxPoint x="790" y="460" as="targetPoint" />
          </mxGeometry>
        </mxCell>
        <mxCell id="dq3wkl6CSuaMOuUt7eZr-10" value="短信发送网关" style="rounded=1;whiteSpace=wrap;html=1;" vertex="1" parent="1">
          <mxGeometry x="540" y="290" width="120" height="60" as="geometry" />
        </mxCell>
        <mxCell id="dq3wkl6CSuaMOuUt7eZr-21" style="edgeStyle=orthogonalEdgeStyle;rounded=0;orthogonalLoop=1;jettySize=auto;html=1;exitX=0.5;exitY=1;exitDx=0;exitDy=0;entryX=0.5;entryY=0;entryDx=0;entryDy=0;" edge="1" parent="1" source="dq3wkl6CSuaMOuUt7eZr-12" target="dq3wkl6CSuaMOuUt7eZr-20">
          <mxGeometry relative="1" as="geometry" />
        </mxCell>
        <mxCell id="dq3wkl6CSuaMOuUt7eZr-12" value="微信推送网关" style="rounded=1;whiteSpace=wrap;html=1;" vertex="1" parent="1">
          <mxGeometry x="800" y="290" width="120" height="60" as="geometry" />
        </mxCell>
        <mxCell id="dq3wkl6CSuaMOuUt7eZr-14" value="用户终端" style="rounded=1;whiteSpace=wrap;html=1;" vertex="1" parent="1">
          <mxGeometry x="750" y="680" width="120" height="60" as="geometry" />
        </mxCell>
        <mxCell id="dq3wkl6CSuaMOuUt7eZr-22" style="edgeStyle=orthogonalEdgeStyle;rounded=0;orthogonalLoop=1;jettySize=auto;html=1;exitX=0.5;exitY=1;exitDx=0;exitDy=0;entryX=0.5;entryY=0;entryDx=0;entryDy=0;" edge="1" parent="1" source="dq3wkl6CSuaMOuUt7eZr-17" target="dq3wkl6CSuaMOuUt7eZr-18">
          <mxGeometry relative="1" as="geometry" />
        </mxCell>
        <mxCell id="dq3wkl6CSuaMOuUt7eZr-17" value="是否微信注册" style="rhombus;whiteSpace=wrap;html=1;" vertex="1" parent="1">
          <mxGeometry x="670" y="440" width="80" height="80" as="geometry" />
        </mxCell>
        <mxCell id="dq3wkl6CSuaMOuUt7eZr-24" style="edgeStyle=orthogonalEdgeStyle;rounded=0;orthogonalLoop=1;jettySize=auto;html=1;exitX=0.5;exitY=1;exitDx=0;exitDy=0;entryX=0.5;entryY=0;entryDx=0;entryDy=0;" edge="1" parent="1" source="dq3wkl6CSuaMOuUt7eZr-18" target="dq3wkl6CSuaMOuUt7eZr-14">
          <mxGeometry relative="1" as="geometry">
            <Array as="points">
              <mxPoint x="710" y="640" />
              <mxPoint x="810" y="640" />
            </Array>
          </mxGeometry>
        </mxCell>
        <mxCell id="dq3wkl6CSuaMOuUt7eZr-18" value="短信推送" style="rounded=1;whiteSpace=wrap;html=1;" vertex="1" parent="1">
          <mxGeometry x="650" y="560" width="120" height="60" as="geometry" />
        </mxCell>
        <mxCell id="dq3wkl6CSuaMOuUt7eZr-28" style="edgeStyle=orthogonalEdgeStyle;rounded=0;orthogonalLoop=1;jettySize=auto;html=1;exitX=0.5;exitY=1;exitDx=0;exitDy=0;entryX=0.5;entryY=0;entryDx=0;entryDy=0;" edge="1" parent="1" source="dq3wkl6CSuaMOuUt7eZr-19" target="dq3wkl6CSuaMOuUt7eZr-14">
          <mxGeometry relative="1" as="geometry">
            <mxPoint x="810" y="660" as="targetPoint" />
            <Array as="points">
              <mxPoint x="867" y="640" />
              <mxPoint x="810" y="640" />
            </Array>
          </mxGeometry>
        </mxCell>
        <mxCell id="dq3wkl6CSuaMOuUt7eZr-19" value="微信推送" style="rounded=1;whiteSpace=wrap;html=1;" vertex="1" parent="1">
          <mxGeometry x="807" y="560" width="120" height="60" as="geometry" />
        </mxCell>
        <mxCell id="dq3wkl6CSuaMOuUt7eZr-23" style="edgeStyle=orthogonalEdgeStyle;rounded=0;orthogonalLoop=1;jettySize=auto;html=1;exitX=0.5;exitY=1;exitDx=0;exitDy=0;entryX=0.442;entryY=0;entryDx=0;entryDy=0;entryPerimeter=0;" edge="1" parent="1" source="dq3wkl6CSuaMOuUt7eZr-20" target="dq3wkl6CSuaMOuUt7eZr-19">
          <mxGeometry relative="1" as="geometry" />
        </mxCell>
        <mxCell id="dq3wkl6CSuaMOuUt7eZr-20" value="是否绑定微信" style="rhombus;whiteSpace=wrap;html=1;" vertex="1" parent="1">
          <mxGeometry x="820" y="440" width="80" height="80" as="geometry" />
        </mxCell>
        <mxCell id="dq3wkl6CSuaMOuUt7eZr-29" value="否" style="text;html=1;align=center;verticalAlign=middle;resizable=0;points=[];autosize=1;strokeColor=none;fillColor=none;" vertex="1" parent="1">
          <mxGeometry x="710" y="525" width="40" height="30" as="geometry" />
        </mxCell>
        <mxCell id="dq3wkl6CSuaMOuUt7eZr-30" value="是" style="text;html=1;align=center;verticalAlign=middle;resizable=0;points=[];autosize=1;strokeColor=none;fillColor=none;" vertex="1" parent="1">
          <mxGeometry x="850" y="525" width="40" height="30" as="geometry" />
        </mxCell>
      </root>
    </mxGraphModel>
  </diagram>
</mxfile>
